<?xml version="1.0" encoding="UTF-8"?>
<svg id="Layer_1" xmlns="http://www.w3.org/2000/svg" version="1.1" viewBox="0 0 576 468.7">
  <!-- Generator: Adobe Illustrator 29.1.0, SVG Export Plug-In . SVG Version: 2.1.0 Build 142)  -->
  <defs>
    <style>
      .st0, .st1 {
        fill: #231f20;
      }

      .st2 {
        display: none;
        fill: #4a8c9b;
      }

      .st3 {
        fill: #bf2e2c;
      }

      .st1 {
        stroke: #bf2e2c;
        stroke-miterlimit: 10;
      }

      .st4 {
        fill: #ab2828;
      }

      .st5 {
        fill: #d1d3d4;
      }
    </style>
  </defs>
  <rect class="st2" width="576" height="468.7"/>
  <path class="st0" d="M277.3,49.2l-7.5,4.4h8.8v28.7h1.6v-27.4l20.7,12.1.4,26.5,3.1,3.1v-27.3l22,9.6v69.7h-22v-27.3l-2.7,2.7.4,24.6h-21.9v-12.9h-1.6v12.9h-20.9v-23.2l-3.7-3.7v26.8h-20.9v-73.3l20.9-11.7v32.6l3.7-3.7v-31.8l-149,87.9v147.7h111.7v-139.9h113.7v139.9h108.5v-152.7l-165.4-94.3ZM327.6,148.6v-69.7l19.6,10.8.3,13.4,1,45.4h-20.9Z"/>
  <polygon class="st3" points="252.3 97.9 254.1 96.2 254.1 63.6 233.2 75.3 233.2 148.6 254.1 148.6 254.1 121.8 252.3 120 252.3 97.9"/>
  <polygon class="st3" points="257.7 53.6 257.7 60.7 269.8 53.6 257.7 53.6"/>
  <polygon class="st3" points="267.9 82.3 278.6 82.3 278.6 53.6 269.8 53.6 257.7 60.7 257.7 92.5 267.9 82.3"/>
  <polygon class="st3" points="257.7 125.4 257.7 148.6 278.6 148.6 278.6 135.7 267.9 135.7 257.7 125.4"/>
  <polygon class="st3" points="280.2 135.7 280.2 148.6 302.1 148.6 301.7 124 290 135.7 280.2 135.7"/>
  <polygon class="st3" points="301.2 93.5 300.8 67 280.2 54.9 280.2 82.3 290 82.3 301.2 93.5"/>
  <polygon class="st3" points="305.7 120 304.4 121.3 304.4 148.6 326.3 148.6 326.3 78.9 304.4 69.4 304.4 96.6 305.7 97.9 305.7 120"/>
  <polygon class="st3" points="347.2 89.8 327.6 78.9 327.6 91.9 327.6 148.6 348.5 148.6 347.5 103.2 347.2 89.8"/>
  <polygon class="st5" points="447.9 152.2 442 145.5 442 295.9 447.7 295.9 447.9 152.2"/>
  <polygon class="st3" points="127.6 138.9 106.7 149.4 106.7 296.2 127.6 296.2 127.6 138.9"/>
  <polygon class="st3" points="146.6 125.9 130.2 134.5 130.2 296.2 146.6 296.2 146.6 125.9"/>
  <rect class="st3" x="150" y="121.2" width="7" height="175"/>
  <polygon class="st3" points="181.3 103.9 160.4 115.5 160.4 148.6 181.3 148.6 181.3 103.9"/>
  <polygon class="st3" points="206.1 89.8 185.2 101.4 185.2 148.6 206.1 148.6 206.1 89.8"/>
  <polygon class="st3" points="230.3 76.2 209.5 87.8 209.5 148.6 230.3 148.6 230.3 76.2"/>
  <polygon class="st3" points="371.3 97.6 350.4 90.6 350.4 148.6 371.3 148.6 371.3 97.6"/>
  <polygon class="st3" points="398.1 120 374.1 116.1 374.1 148.6 398.1 148.6 398.1 120"/>
  <polygon class="st3" points="407.1 134.5 401 123.1 401 295.9 407.1 295.9 407.1 134.5"/>
  <polygon class="st3" points="425.3 144.5 409.4 131 409.4 295.9 425.3 295.9 425.3 144.5"/>
  <polygon class="st3" points="444 155.9 427.4 136.7 427.4 295.9 444 295.9 444 155.9"/>
  <polygon class="st0" points="444 158.2 278.6 62.9 106.7 159.4 106.8 152.2 277.3 55.9 444 150.6 444 158.2"/>
  <polyline class="st3" points="84 152 277.3 42.4 277.3 49.2 89.3 156.4 84 152"/>
  <polyline class="st4" points="465.3 156.4 277.3 49.2 277.3 55.9 460.1 160.7 465.3 156.4"/>
  <polyline class="st5" points="470.5 152 277.3 42.4 277.3 49.2 465.2 156.4 470.5 152"/>
  <path class="st1" d="M115.8,156.4"/>
  <polyline class="st4" points="89.3 156.4 277.3 49.2 277.3 55.9 94.4 160.7 89.3 156.4"/>
  <path class="st0" d="M503.7,167.5"/>
  <g id="Door">
    <rect class="st3" x="164.1" y="156.4" width="56.3" height="139.8"/>
    <rect class="st0" x="164.1" y="220.6" width="31.7" height="7"/>
    <rect class="st0" x="212.7" y="220.6" width="7.8" height="7"/>
    <path class="st0" d="M216.3,156.4l-25.2,41.9-24.4-41.9h-2.6v11.6l21.9,38.8-10.5,17.4,10.4,17.9-21.8,39.6v14.7l26.7-45.9,26.7,45.9h2.9v-11l-24.6-43.5,10.3-17.6-10.1-17.3,24.4-41.7v-8.7M190.9,233l-5-8.9,5.1-8.7,4.9,8.7-4.9,8.9Z"/>
  </g>
  <g id="Door1" data-name="Door">
    <rect class="st3" x="333.9" y="156.4" width="60.8" height="139.8" transform="translate(728.6 452.7) rotate(-180)"/>
    <rect class="st0" x="360.5" y="220.6" width="34.2" height="7" transform="translate(755.2 448.2) rotate(-180)"/>
    <rect class="st0" x="333.9" y="220.6" width="8.4" height="7" transform="translate(676.2 448.2) rotate(-180)"/>
    <path class="st0" d="M334,156.4v8.7c0,0,26.3,41.7,26.3,41.7l-10.9,17.3,11.1,17.6-26.6,43.5v11s3.1,0,3.1,0l28.8-45.9,28.8,45.9v-14.7s-23.6-39.6-23.6-39.6l11.2-17.9-11.3-17.4,23.6-38.8v-11.6s-2.8,0-2.8,0l-26.3,41.9-27.2-41.9M360.5,224.1l5.3-8.7,5.5,8.7-5.4,8.9-5.3-8.9Z"/>
  </g>
  <rect class="st5" x="277.3" y="82.3" width="4.2" height="53.3"/>
  <rect class="st5" x="252.3" y="106.5" width="53.1" height="3.6"/>
  <g id="Name">
    <g>
      <path class="st0" d="M68.7,385.5v-62.2h-2.5c-2.6,0-4.8,1.1-6.7,3.2v-12.6h26.6v12.6c-1.9-2.1-4.1-3.2-6.7-3.2h-2.5v62.2h-8.3Z"/>
      <path class="st0" d="M89.9,385.5c1.7-2.4,2.5-5.2,2.5-8.4v-54.8c0-3.2-.8-6-2.5-8.4h13.3c-1.7,2.4-2.5,5.2-2.5,8.4v22.1h11.6v-22.1c0-3.2-.8-6-2.5-8.4h13.3c-1.7,2.4-2.5,5.2-2.5,8.4v54.8c0,3.2.8,6,2.5,8.4h-13.3c1.7-2.4,2.5-5.2,2.5-8.4v-23.2h-11.6v23.2c0,3.2.8,6,2.5,8.4h-13.3Z"/>
      <path class="st0" d="M127.8,385.5c1.7-2.4,2.5-5.2,2.5-8.4v-54.8c0-3.2-.8-6-2.5-8.4h26.6v11.6c-1.3-1.4-3.5-2.1-6.7-2.1h-9.2v21.1h5.8c3.2,0,5.4-.7,6.7-2.1v13.7c-1.3-1.4-3.5-2.1-6.7-2.1h-5.8v22.1h9.2c3.2,0,5.4-.7,6.7-2.1v11.6h-26.6Z"/>
      <path class="st0" d="M189.9,386.5c-3.9,0-7.2-1.6-9.9-4.7-2.6-3.1-4-7.3-4-12.4v-5.1h10.8c-1.2,1.8-1.7,3.9-1.7,6.1s.4,3.4,1.2,4.6,2,1.9,3.5,1.9,3.1-.8,4.3-2.3c1.2-1.5,1.8-4,1.8-7.4s-.4-4.5-1.3-5.8c-.9-1.4-3.6-4.4-8.1-9.2-3.6-4-6-6.9-7.1-8.6-2.3-3.8-3.5-7.9-3.5-12.4s1.2-10.9,3.7-14.1c2.5-3.2,5.9-4.8,10.3-4.8s7.8,1.4,10,4.2c2.2,2.8,3.6,7.1,4,13,.1,2.2.2,4.1.2,5.6h-10.8c1.3-1.8,1.9-3.9,1.9-6.3s-.5-3.6-1.4-5c-.9-1.3-2.2-2-3.8-2s-3,.8-4.1,2.3c-1.1,1.5-1.7,4-1.7,7.4s.5,4.6,1.6,6.6c1.1,2,2.9,4.3,5.5,6.9.2.1.7.7,1.7,1.7,1,1,1.6,1.7,1.8,1.9.2.2.8.8,1.7,1.8.9.9,1.5,1.6,1.7,2.1.3.4.8,1.1,1.5,2.1.7.9,1.2,1.7,1.5,2.3.3.6.7,1.4,1.1,2.4.5,1,.8,1.9,1,2.7.2.8.3,1.7.5,2.7.2,1,.2,2,.2,3.1,0,6.1-1.3,10.8-3.9,14.1-2.6,3.3-6.1,4.9-10.6,4.9Z"/>
      <path class="st0" d="M209.3,385.5c1.7-2.4,2.5-5.2,2.5-8.4v-54.8c0-3.2-.8-6-2.5-8.4h13.3c-1.7,2.4-2.5,5.2-2.5,8.4v22.1h11.6v-22.1c0-3.2-.8-6-2.5-8.4h13.3c-1.7,2.4-2.5,5.2-2.5,8.4v54.8c0,3.2.8,6,2.5,8.4h-13.3c1.7-2.4,2.5-5.2,2.5-8.4v-23.2h-11.6v23.2c0,3.2.8,6,2.5,8.4h-13.3Z"/>
      <path class="st0" d="M247.2,385.5c1.7-2.4,2.5-5.2,2.5-8.4v-54.8c0-3.2-.8-6-2.5-8.4h26.6v11.6c-1.3-1.4-3.5-2.1-6.7-2.1h-9.2v21.1h5.8c3.2,0,5.4-.7,6.7-2.1v13.7c-1.3-1.4-3.5-2.1-6.7-2.1h-5.8v22.1h9.2c3.2,0,5.4-.7,6.7-2.1v11.6h-26.6Z"/>
      <path class="st0" d="M279.6,385.5c1.7-2.4,2.5-5.2,2.5-8.4v-54.8c0-3.2-.8-6-2.5-8.4h16.3c9.7,0,14.5,5.7,14.5,17.2v36.3c0,5.6-1.2,10-3.5,13.3-2.3,3.3-6,5-11,5h-16.3ZM290.5,376h5.5c4.1,0,6.2-2.8,6.2-8.5v-36.7c0-5-2.1-7.5-6.2-7.5h-5.5v52.7Z"/>
      <path class="st0" d="M332.1,385.5c1.7-2.4,2.5-5.2,2.5-8.4v-54.8c0-3.2-.8-6-2.5-8.4h16.2c9.7,0,14.6,5.7,14.6,17.2s-1.9,12-5.7,17.5c-3.8,5.6-8.6,9.7-14.2,12.3v16.2c0,3.1.8,5.9,2.5,8.4h-13.3ZM342.9,350.1c3.5-2.1,6.4-4.8,8.5-8.2,2.1-3.4,3.2-7.1,3.2-11.1s-2.1-7.5-6.2-7.5h-5.4v26.8Z"/>
      <path class="st0" d="M367,385.5c1.1-1.6,1.7-4.4,1.7-8.4v-54.8c0-4-.6-6.8-1.7-8.4h11.6c-1.1,1.6-1.7,4.4-1.7,8.4v53.7h9.2c3.2,0,5.4-.7,6.7-2.1v11.6h-25.8Z"/>
      <path class="st0" d="M393.6,385.5c1.8-2.2,3-4.9,3.6-8l7.8-55.6c.2-3.2-.2-5.8-1.4-8h18.3c-1.2,2.2-1.6,4.8-1.4,8l7.8,55.6c.6,3.1,1.7,5.8,3.6,8h-13.3c1.3-2.4,1.8-5.2,1.3-8.4l-.6-4.2h-13.1l-.6,4.2c-.4,3.2,0,6,1.3,8.4h-13.3ZM407.5,363.4h10.5l-5.2-38.7-5.2,38.7Z"/>
      <path class="st0" d="M449.9,386.5c-5.4,0-9.5-2.8-12.3-8.3-2.7-5.5-4.1-15.1-4.1-28.6s1.4-23.1,4.1-28.6c2.7-5.5,6.8-8.3,12.3-8.3s7.9,1.8,10.4,5.3c2.5,3.5,4,9.5,4.5,17.8h-10.9c.9-1.3,1.4-3.1,1.4-5.2s-.5-4.2-1.5-5.9c-1-1.7-2.3-2.5-4-2.5-5.4,0-8.1,9.1-8.1,27.4s.8,16.9,2.3,21.1c1.5,4.2,3.5,6.3,5.8,6.3s3-.9,4.1-2.7c1.1-1.8,1.6-3.8,1.6-6.2s-.6-4.3-1.7-5.9h10.9c-.3,8.6-1.7,14.8-4.2,18.6-2.6,3.8-6.1,5.6-10.7,5.6Z"/>
      <path class="st0" d="M469.9,385.5c1.7-2.4,2.5-5.2,2.5-8.4v-54.8c0-3.2-.8-6-2.5-8.4h26.6v11.6c-1.3-1.4-3.5-2.1-6.7-2.1h-9.2v21.1h5.8c3.2,0,5.4-.7,6.7-2.1v13.7c-1.3-1.4-3.5-2.1-6.7-2.1h-5.8v22.1h9.2c3.2,0,5.4-.7,6.7-2.1v11.6h-26.6Z"/>
    </g>
    <g>
      <path class="st0" d="M61.1,426.5l172.4-4.2s3.7-.8,3.7,4.2-3.9,4.3-3.9,4.3l-172.2-4.3Z"/>
      <path class="st0" d="M495.9,426.5l-172.4-4.2s-3.7-.8-3.7,4.2,3.9,4.3,3.9,4.3l172.2-4.3Z"/>
      <rect class="st0" x="262.2" y="423.1" width="10.6" height="6.7"/>
      <rect class="st0" x="285.5" y="423.1" width="10.6" height="6.7"/>
    </g>
    <g>
      <path class="st0" d="M106.9,393.4c2.3,0,4.2.8,5.7,2.3s2.3,3.4,2.3,5.6-.8,4.1-2.3,5.6c-1.5,1.5-3.4,2.3-5.6,2.3s-4.1-.8-5.7-2.3c-1.5-1.5-2.3-3.4-2.3-5.6s.4-2.8,1.1-4,1.7-2.2,2.9-2.9c1.2-.7,2.5-1.1,3.9-1.1ZM107,394.9c-1.1,0-2.2.3-3.2.9-1,.6-1.8,1.4-2.3,2.3s-.8,2.1-.8,3.3c0,1.8.6,3.3,1.9,4.5,1.2,1.2,2.7,1.9,4.5,1.9s2.3-.3,3.3-.9c1-.6,1.8-1.3,2.3-2.3.6-1,.8-2.1.8-3.3s-.3-2.3-.8-3.2c-.6-1-1.3-1.7-2.4-2.3-1-.6-2.1-.9-3.2-.9Z"/>
      <path class="st0" d="M121.3,397.7h1.4v5.2c0,1.3,0,2.1.2,2.6.2.7.6,1.2,1.2,1.6.6.4,1.3.6,2.1.6s1.5-.2,2-.6c.6-.4.9-.9,1.2-1.5.1-.4.2-1.3.2-2.7v-5.2h1.5v5.5c0,1.5-.2,2.7-.5,3.5-.4.8-.9,1.4-1.6,1.8-.7.4-1.6.7-2.7.7s-2-.2-2.7-.7c-.7-.4-1.3-1.1-1.6-1.8-.4-.8-.5-2-.5-3.6v-5.4Z"/>
      <path class="st0" d="M139.3,393.6h1.4v4.1h2.3v1.2h-2.3v9.9h-1.4v-9.9h-2v-1.2h2v-4.1Z"/>
      <path class="st0" d="M160,393.4v15.5h-1.4v-1.9c-.6.7-1.3,1.3-2,1.7-.7.4-1.6.6-2.5.6-1.6,0-2.9-.6-4-1.7-1.1-1.1-1.7-2.5-1.7-4.2s.6-3,1.7-4.1,2.5-1.7,4.1-1.7,1.7.2,2.5.6c.7.4,1.4,1,2,1.8v-6.4h1.4ZM154.3,398.8c-.8,0-1.5.2-2.2.6s-1.2.9-1.6,1.7c-.4.7-.6,1.5-.6,2.3s.2,1.5.6,2.3c.4.7.9,1.3,1.6,1.7.7.4,1.4.6,2.2.6s1.5-.2,2.2-.6c.7-.4,1.2-.9,1.6-1.6.4-.7.6-1.4.6-2.3,0-1.3-.4-2.4-1.3-3.2-.9-.9-1.9-1.3-3.1-1.3Z"/>
      <path class="st0" d="M172.3,397.4c1.7,0,3.1.6,4.3,1.9,1,1.1,1.5,2.5,1.5,4s-.5,2.9-1.6,4.1c-1.1,1.2-2.5,1.7-4.2,1.7s-3.1-.6-4.2-1.7c-1.1-1.2-1.6-2.5-1.6-4.1s.5-2.9,1.5-4c1.1-1.3,2.6-1.9,4.3-1.9ZM172.3,398.8c-1.2,0-2.2.4-3.1,1.3s-1.3,1.9-1.3,3.2.2,1.6.6,2.3.9,1.2,1.6,1.6c.7.4,1.4.6,2.2.6s1.5-.2,2.2-.6c.7-.4,1.2-.9,1.6-1.6.4-.7.6-1.4.6-2.3,0-1.3-.4-2.3-1.3-3.2-.9-.9-1.9-1.3-3.1-1.3Z"/>
      <path class="st0" d="M189.8,397.4c1.7,0,3.1.6,4.3,1.9,1,1.1,1.5,2.5,1.5,4s-.5,2.9-1.6,4.1c-1.1,1.2-2.5,1.7-4.2,1.7s-3.1-.6-4.2-1.7c-1.1-1.2-1.6-2.5-1.6-4.1s.5-2.9,1.5-4c1.1-1.3,2.6-1.9,4.3-1.9ZM189.8,398.8c-1.2,0-2.2.4-3.1,1.3s-1.3,1.9-1.3,3.2.2,1.6.6,2.3.9,1.2,1.6,1.6c.7.4,1.4.6,2.2.6s1.5-.2,2.2-.6c.7-.4,1.2-.9,1.6-1.6.4-.7.6-1.4.6-2.3,0-1.3-.4-2.3-1.3-3.2-.9-.9-1.9-1.3-3.1-1.3Z"/>
      <path class="st0" d="M201.5,397.7h1.5v1.6c.4-.6.9-1.1,1.4-1.4.5-.3,1-.5,1.5-.5s.8.1,1.3.4l-.7,1.2c-.3-.1-.6-.2-.8-.2-.5,0-.9.2-1.4.6-.4.4-.8,1-1,1.8-.2.6-.3,1.9-.3,3.9v3.8h-1.5v-11.2Z"/>
      <path class="st0" d="M220.4,406.1l1.3-.8c.9,1.7,1.9,2.5,3.1,2.5s1-.1,1.4-.4c.4-.2.8-.6,1-.9.2-.4.3-.8.3-1.3s-.2-1-.5-1.5c-.5-.7-1.3-1.5-2.6-2.4-1.3-1-2-1.6-2.3-2.1-.5-.7-.8-1.5-.8-2.3s.2-1.3.5-1.8.8-1,1.3-1.3c.6-.3,1.2-.5,1.9-.5s1.4.2,2,.5c.6.4,1.3,1,2,1.9l-1.2.9c-.6-.8-1.1-1.2-1.5-1.5-.4-.2-.8-.4-1.3-.4s-1.1.2-1.5.6c-.4.4-.6.8-.6,1.4s0,.6.2,1,.4.6.7,1c.2.2.8.7,1.9,1.5,1.3,1,2.2,1.8,2.7,2.6s.7,1.5.7,2.3c0,1.1-.4,2-1.2,2.9-.8.8-1.8,1.2-3,1.2s-1.7-.2-2.5-.7c-.7-.5-1.4-1.3-2.1-2.5Z"/>
      <path class="st0" d="M237.2,393.6h1.4v4.1h2.3v1.2h-2.3v9.9h-1.4v-9.9h-2v-1.2h2v-4.1Z"/>
      <path class="st0" d="M246.3,397.7h1.5v1.6c.4-.6.9-1.1,1.4-1.4.5-.3,1-.5,1.5-.5s.8.1,1.3.4l-.7,1.2c-.3-.1-.6-.2-.8-.2-.5,0-.9.2-1.4.6-.4.4-.8,1-1,1.8-.2.6-.3,1.9-.3,3.9v3.8h-1.5v-11.2Z"/>
      <path class="st0" d="M256.7,397.7h1.4v5.2c0,1.3,0,2.1.2,2.6.2.7.6,1.2,1.2,1.6.6.4,1.3.6,2.1.6s1.5-.2,2-.6c.6-.4.9-.9,1.2-1.5.1-.4.2-1.3.2-2.7v-5.2h1.5v5.5c0,1.5-.2,2.7-.5,3.5-.4.8-.9,1.4-1.6,1.8-.7.4-1.6.7-2.7.7s-2-.2-2.7-.7c-.7-.4-1.3-1.1-1.6-1.8-.4-.8-.5-2-.5-3.6v-5.4Z"/>
      <path class="st0" d="M284.2,400l-1.1.7c-1-1.3-2.3-2-4-2s-2.5.4-3.4,1.3c-.9.9-1.3,1.9-1.3,3.2s.2,1.6.6,2.3,1,1.3,1.7,1.7c.7.4,1.5.6,2.4.6,1.6,0,3-.7,4-2l1.1.7c-.5.8-1.2,1.4-2.1,1.9-.9.4-1.9.7-3.1.7-1.8,0-3.2-.6-4.4-1.7-1.2-1.1-1.7-2.5-1.7-4.1s.3-2.1.8-3c.5-.9,1.3-1.6,2.2-2.2.9-.5,2-.8,3.2-.8s1.5.1,2.1.3c.7.2,1.3.5,1.7.9s.9.8,1.2,1.4Z"/>
      <path class="st0" d="M292,393.6h1.4v4.1h2.3v1.2h-2.3v9.9h-1.4v-9.9h-2v-1.2h2v-4.1Z"/>
      <path class="st0" d="M301.5,397.7h1.4v5.2c0,1.3,0,2.1.2,2.6.2.7.6,1.2,1.2,1.6.6.4,1.3.6,2.1.6s1.5-.2,2-.6c.6-.4.9-.9,1.2-1.5.1-.4.2-1.3.2-2.7v-5.2h1.5v5.5c0,1.5-.2,2.7-.5,3.5-.4.8-.9,1.4-1.6,1.8-.7.4-1.6.7-2.7.7s-2-.2-2.7-.7c-.7-.4-1.3-1.1-1.6-1.8-.4-.8-.5-2-.5-3.6v-5.4Z"/>
      <path class="st0" d="M317.6,397.7h1.5v1.6c.4-.6.9-1.1,1.4-1.4.5-.3,1-.5,1.5-.5s.8.1,1.3.4l-.7,1.2c-.3-.1-.6-.2-.8-.2-.5,0-.9.2-1.4.6-.4.4-.8,1-1,1.8-.2.6-.3,1.9-.3,3.9v3.8h-1.5v-11.2Z"/>
      <path class="st0" d="M337.6,405.2l1.2.6c-.4.8-.9,1.4-1.4,1.9-.5.5-1.1.8-1.8,1.1-.7.2-1.4.4-2.2.4-1.8,0-3.2-.6-4.3-1.8-1-1.2-1.5-2.5-1.5-4s.4-2.7,1.3-3.8c1.1-1.4,2.6-2.1,4.4-2.1s3.4.7,4.6,2.2c.8,1,1.2,2.3,1.2,3.8h-10c0,1.3.4,2.4,1.2,3.2.8.8,1.8,1.2,3,1.2s1.1,0,1.7-.3c.5-.2,1-.5,1.4-.8.4-.3.8-.9,1.2-1.6ZM337.6,402.2c-.2-.8-.5-1.4-.8-1.8s-.9-.8-1.5-1.1c-.6-.3-1.2-.4-1.9-.4-1.1,0-2,.4-2.8,1.1-.6.5-1,1.3-1.3,2.3h8.3Z"/>
      <path class="st0" d="M351.3,398.9l-.9,1c-.8-.7-1.5-1.1-2.3-1.1s-.9.2-1.2.5c-.3.3-.5.7-.5,1.1s.1.7.4,1c.3.3.8.7,1.7,1.2,1.1.6,1.8,1.1,2.2,1.6.4.5.6,1.1.6,1.8s-.3,1.7-1,2.3c-.6.6-1.4,1-2.4,1s-1.3-.1-1.8-.4c-.6-.3-1.1-.7-1.5-1.2l.9-1c.7.8,1.5,1.2,2.3,1.2s1.1-.2,1.5-.6c.4-.4.6-.8.6-1.3s-.1-.8-.4-1.1c-.3-.3-.9-.7-1.8-1.2-1-.5-1.7-1-2.1-1.5-.4-.5-.5-1.1-.5-1.7s.3-1.6.9-2.1c.6-.6,1.3-.8,2.2-.8s2.1.5,3.1,1.5Z"/>
      <path class="st0" d="M378.8,403.3l1,1.1c-.7.6-1.3,1.1-1.9,1.5.4.4.9.9,1.6,1.6.5.5,1,1,1.3,1.4h-2.1l-2-2.1c-1.3,1-2.3,1.7-3.1,2s-1.6.5-2.5.5-2.1-.3-2.8-1c-.7-.7-1.1-1.5-1.1-2.5s.2-1.5.7-2.3c.5-.8,1.4-1.7,2.9-2.9-.8-1-1.4-1.7-1.6-2.2-.2-.5-.4-.9-.4-1.4,0-.8.3-1.4.9-1.9.7-.6,1.5-.9,2.5-.9s1.2.1,1.7.4c.5.3.9.6,1.2,1,.3.4.4.9.4,1.4s-.2,1-.5,1.6c-.4.6-1.1,1.3-2.1,2.2l2.3,2.4,1.5,1.5c.8-.6,1.4-1.1,1.9-1.5ZM372,401.8c-1.3,1-2.1,1.7-2.5,2.3s-.6,1.1-.6,1.6.2,1.1.7,1.5,1.1.7,1.8.7,1.1-.1,1.6-.3c.8-.3,1.7-.9,2.8-1.8l-2.4-2.5c-.4-.4-.9-.9-1.4-1.5ZM372.2,399.8c.7-.6,1.3-1.1,1.7-1.7.3-.4.4-.7.4-1s-.2-.6-.5-.9c-.3-.3-.8-.4-1.4-.4s-1,.1-1.3.4c-.3.3-.5.6-.5.9s0,.5.2.8c.3.6.8,1.2,1.4,1.9Z"/>
      <path class="st0" d="M395.9,408.9l2.2-15.1h.2l6.1,12.4,6.1-12.4h.2l2.2,15.1h-1.5l-1.5-10.8-5.3,10.8h-.4l-5.4-10.9-1.5,10.9h-1.5Z"/>
      <path class="st0" d="M424.7,397.4c1.7,0,3.1.6,4.3,1.9,1,1.1,1.5,2.5,1.5,4s-.5,2.9-1.6,4.1c-1.1,1.2-2.5,1.7-4.2,1.7s-3.1-.6-4.2-1.7c-1.1-1.2-1.6-2.5-1.6-4.1s.5-2.9,1.5-4c1.1-1.3,2.6-1.9,4.3-1.9ZM424.7,398.8c-1.2,0-2.2.4-3.1,1.3s-1.3,1.9-1.3,3.2.2,1.6.6,2.3.9,1.2,1.6,1.6c.7.4,1.4.6,2.2.6s1.5-.2,2.2-.6c.7-.4,1.2-.9,1.6-1.6.4-.7.6-1.4.6-2.3,0-1.3-.4-2.3-1.3-3.2-.9-.9-1.9-1.3-3.1-1.3Z"/>
      <path class="st0" d="M436.4,397.7h1.5v1.6c.4-.6.9-1.1,1.4-1.4.5-.3,1-.5,1.5-.5s.8.1,1.3.4l-.7,1.2c-.3-.1-.6-.2-.8-.2-.5,0-.9.2-1.4.6-.4.4-.8,1-1,1.8-.2.6-.3,1.9-.3,3.9v3.8h-1.5v-11.2Z"/>
      <path class="st0" d="M456.4,405.2l1.2.6c-.4.8-.9,1.4-1.4,1.9-.5.5-1.1.8-1.8,1.1-.7.2-1.4.4-2.2.4-1.8,0-3.2-.6-4.3-1.8-1-1.2-1.5-2.5-1.5-4s.4-2.7,1.3-3.8c1.1-1.4,2.6-2.1,4.4-2.1s3.4.7,4.6,2.2c.8,1,1.2,2.3,1.2,3.8h-10c0,1.3.4,2.4,1.2,3.2.8.8,1.8,1.2,3,1.2s1.1,0,1.7-.3c.5-.2,1-.5,1.4-.8.4-.3.8-.9,1.2-1.6ZM456.4,402.2c-.2-.8-.5-1.4-.8-1.8s-.9-.8-1.5-1.1c-.6-.3-1.2-.4-1.9-.4-1.1,0-2,.4-2.8,1.1-.6.5-1,1.3-1.3,2.3h8.3Z"/>
    </g>
  </g>
  <rect class="st0" x="47.9" y="194.6" width="23.5" height="5.3"/>
  <path class="st0" d="M47.9,302.4s18.8-10.6,50.3-12.5c0,0-4.7-11.5-7.2-15.5h3.3s-3.5-7.6-5-9h1s-2.8-8.2-6.3-14.3l-5.2,11.5v3.3l-2.9,4.1-1.4-3.9-1.5-1.2v-2.9l2.4.4-7-16.8s-7.4,12.9-7.6,13.9l1.6.6s-7.4,11-7.4,11.5l4.7-.6s-4.9,10.6-8.4,15.7l6.1.6s-8.8,10.2-9.4,15.1Z"/>
  <path class="st0" d="M508.8,302.4s-18.8-10.6-50.3-12.5c0,0,4.7-11.5,7.2-15.5h-3.3s3.5-7.6,5-9h-1s2.8-8.2,6.3-14.3l5.2,11.5v3.3s2.9,4.1,2.9,4.1l1.4-3.9,1.5-1.2v-2.9s-2.4.4-2.4.4l7-16.8s7.4,12.9,7.6,13.9l-1.6.6s7.4,11,7.4,11.5l-4.7-.6s4.9,10.6,8.4,15.7l-6.1.6s8.8,10.2,9.4,15.1Z"/>
  <rect class="st0" x="483.6" y="194" width="27.5" height="5.1"/>
  <rect class="st0" x="121.8" y="75.5" width="34.3" height="4.5" rx="1.6" ry="1.6" transform="translate(66 -63.8) rotate(33.5)"/>
  <rect class="st0" x="143.2" y="55.9" width="31.3" height="4.5" rx="1.6" ry="1.6" transform="translate(93.1 -97.7) rotate(47)"/>
  <path class="st0" d="M17.1,125.9l108.5-1.8s-2.7-22.7-21.1-11.7c.7-1.5-13.4-19.6-21.8,1.5,0,0-13.9-10.1-19.7,6.2l-13.4.8c-1.7,0-3.3.2-5,.5l-27.5,4.6Z"/>
  <rect class="st0" x="398.8" y="76.7" width="34.3" height="4.5" rx="1.6" ry="1.6" transform="translate(806.3 -84.9) rotate(146.5)"/>
  <rect class="st0" x="380.3" y="55.4" width="31.3" height="4.5" rx="1.6" ry="1.6" transform="translate(707.9 -192.8) rotate(133)"/>
  <path class="st0" d="M563.2,125.4l-124.5-2.2s3.1-28.1,24.3-14.5c-.7-1.9,15.4-24.3,25,1.8,0,0,15.9-12.5,22.6,7.6l15.4,1c1.9,0,3.8.2,5.7.6l31.6,5.7Z"/>
</svg>